<svg width="563" height="683" viewBox="0 0 563 683" fill="none" xmlns="http://www.w3.org/2000/svg">
<path d="M76.5333 2.16885C73.4667 3.63552 69.6 6.83552 67.8667 9.23552L64.6667 13.7689L64 116.702L63.3333 219.769L33.3333 261.902C16.8 285.236 2.66667 305.769 1.73333 307.636C0.533333 310.169 0.133333 328.036 0 375.102C0 434.702 0.133333 439.502 2.4 443.636C6.8 451.902 11.0667 453.102 35.8667 453.102H57.7333L144.133 499.369C191.733 524.969 230.667 546.036 230.667 546.436C230.533 546.836 195.067 566.036 151.733 589.102C52.5333 642.036 54 641.102 50.6667 647.769C47.6 653.902 47.2 663.636 49.8667 668.836C54.9333 678.569 67.2 684.302 76.6667 681.502C79.3333 680.702 126.4 655.902 181.467 626.436L281.333 572.969L381.2 626.436C436.267 655.902 483.333 680.702 486 681.502C495.467 684.302 507.733 678.569 512.8 668.836C515.467 663.636 515.067 653.902 512 647.769C508.667 641.102 510.133 642.036 410.933 589.102C367.6 566.036 332.133 546.836 332 546.436C332 546.036 370.933 524.969 418.533 499.369L504.933 453.102H526.8C551.6 453.102 555.867 451.902 560.267 443.636C562.533 439.502 562.667 434.569 562.667 375.502C562.667 340.569 562.133 310.569 561.467 308.836C560.8 307.102 546.4 286.169 529.467 262.436L498.533 219.102L499.333 124.302C499.867 72.0355 499.867 26.0355 499.333 21.9022C498.133 12.4355 494.267 6.56885 486.667 2.70219C478.8 -1.43115 470 -0.764481 463.333 4.30219C455.867 10.0355 454.133 14.5689 453.6 30.7022L453.067 45.1022H281.2H109.333V32.0355C109.333 22.3022 108.667 17.7689 106.8 13.6355C101.467 1.90219 88 -3.16448 76.5333 2.16885ZM454.667 201.102V235.769H281.333H108V201.102V166.436H281.333H454.667V201.102ZM514.8 300.036L529.333 320.436V369.369C529.333 396.436 528.8 418.436 528.267 418.436C527.733 418.436 520.8 394.569 512.933 365.369L498.667 312.436V295.236C498.667 285.769 499.067 278.436 499.467 278.836C500 279.369 506.933 288.836 514.8 300.036ZM64 296.036V312.302L49.7333 365.369C41.8667 394.569 34.9333 418.436 34.4 418.436C33.7333 418.436 33.3333 396.436 33.3333 369.369V320.436L47.7333 300.169C55.6 288.969 62.4 279.769 63.0667 279.769C63.6 279.769 64 287.102 64 296.036ZM430.667 439.636C429.6 440.302 395.467 458.569 355.067 480.169L281.333 519.636L207.733 480.169C167.2 458.569 133.067 440.302 132 439.636C130.933 438.969 196.8 438.569 281.333 438.569C365.867 438.569 431.733 438.969 430.667 439.636Z" fill="#FF2D2D"/>
</svg>
